# Blender v2.78 (sub 0) OBJ File: ''
# www.blender.org
mtllib Cube4.mtl
o Cube
v -1.000000 -1.000000 1.000000
v -1.000000 1.000000 1.000000
v -1.000000 -1.000000 -1.000000
v -1.000000 1.000000 -1.000000
v 1.000000 -1.000000 1.000000
v 1.000000 1.000000 1.000000
v 1.000000 -1.000000 -1.000000
v 1.000000 1.000000 -1.000000
vt 1.0012 -0.0240
vt 0.0031 0.9969
vt 1.0011 0.9969
vt -0.0000 -0.0208
vt 1.0012 0.9985
vt 1.0012 -0.0208
vt -0.0000 0.9985
vt 1.0012 -0.0224
vt -0.0000 -0.0240
vt 1.0012 0.9968
vt -0.0000 0.9968
vt -0.0000 1.0000
vt 1.0004 0.0008
vt 1.0012 1.0000
vt 1.0012 1.0000
vt 0.0000 -0.0208
vt 1.0012 -0.0208
vt 0.0032 -0.0208
vt 0.0000 -0.0224
vt -0.0008 -0.0017
vt 0.0000 1.0000
vn -1.0000 0.0000 0.0000
vn 0.0000 0.0000 -1.0000
vn 1.0000 0.0000 0.0000
vn 0.0000 0.0000 1.0000
vn 0.0000 -1.0000 0.0000
vn 0.0000 1.0000 0.0000
usemtl Material.001
s off
f 2/1/1 3/2/1 1/3/1
f 4/4/2 7/5/2 3/6/2
f 8/7/3 5/8/3 7/5/3
f 6/9/4 1/10/4 5/11/4
f 7/12/5 1/13/5 3/14/5
f 4/15/6 6/16/6 8/17/6
f 2/1/1 4/18/1 3/2/1
f 4/4/2 8/7/2 7/5/2
f 8/7/3 6/19/3 5/8/3
f 6/9/4 2/1/4 1/10/4
f 7/12/5 5/20/5 1/13/5
f 4/15/6 2/21/6 6/16/6
