# Blender v2.78 (sub 0) OBJ File: ''
# www.blender.org
mtllib Cube3.mtl
o Cube
v -1.000000 -1.000000 1.000000
v -1.000000 1.000000 1.000000
v -1.000000 -1.000000 -1.000000
v -1.000000 1.000000 -1.000000
v 1.000000 -1.000000 1.000000
v 1.000000 1.000000 1.000000
v 1.000000 -1.000000 -1.000000
v 1.000000 1.000000 -1.000000
vt 0.0011 0.9977
vt 0.9991 0.0011
vt 1.0008 0.9949
vt 0.0000 0.9989
vt 1.0021 0.9949
vt 0.9996 0.9960
vt 0.0025 0.9977
vt 1.0005 0.0060
vt 0.0008 -0.0000
vt 1.0009 0.9958
vt 0.0013 0.9987
vt 0.0003 0.9997
vt 0.9983 0.0031
vt 0.9999 0.9968
vt 0.9996 0.9971
vt -0.0005 0.0013
vt 0.9980 0.0033
vt 0.0006 -0.0010
vt 0.0020 0.0039
vt 0.9993 0.0020
vt -0.0002 0.0010
vt 0.0000 1.0000
vn -1.0000 0.0000 0.0000
vn 0.0000 0.0000 -1.0000
vn 1.0000 0.0000 0.0000
vn 0.0000 0.0000 1.0000
vn 0.0000 -1.0000 0.0000
vn 0.0000 1.0000 0.0000
usemtl Material.002
s off
f 2/1/1 3/2/1 1/3/1
f 4/4/2 7/5/2 3/6/2
f 8/7/3 5/8/3 7/5/3
f 6/9/4 1/10/4 5/11/4
f 7/12/5 1/13/5 3/14/5
f 4/15/6 6/16/6 8/17/6
f 2/1/1 4/18/1 3/2/1
f 4/4/2 8/7/2 7/5/2
f 8/7/3 6/19/3 5/8/3
f 6/9/4 2/20/4 1/10/4
f 7/12/5 5/21/5 1/13/5
f 4/15/6 2/22/6 6/16/6
